<svg width="375" height="643" viewBox="0 0 375 643" fill="none" xmlns="http://www.w3.org/2000/svg">
<path d="M-41 82.8704C-41 82.8704 4.01316 63.2805 21.7746 73.6414C39.5361 84.0893 54.8597 68.7657 63.4793 70.5941C72.0988 72.4225 88.0319 80.2584 95.3455 76.6017C102.746 73.032 114.326 65.3701 122.945 70.42C131.565 75.4698 132.174 64.4995 151.155 68.7657C170.135 73.032 169.09 66.6761 176.23 70.507C183.456 74.338 188.332 67.4597 194.949 70.507C201.653 73.5544 222.462 85.1341 229.601 75.2957C236.741 65.4572 242.922 64.6736 248.843 67.7209C254.763 70.7682 256.505 53.0938 282.189 69.7234C307.874 86.3531 332.775 73.9897 347.402 72.5966C362.029 71.2035 406.433 83.0446 419.057 75.5569C431.595 68.0692 439.605 83.2187 453.187 81.2162C466.769 79.1266 469.381 74.5121 475.563 79.649C481.745 84.7859 491.757 82.6963 491.757 82.6963C491.757 82.6963 599.023 59.1885 694.099 102.721C789.175 146.255 829.748 146.255 829.748 146.255V255H-41V82.8704Z" fill="white"/>
<path opacity="0.3" d="M-32.99 77.4724C-32.99 77.4724 12.0232 57.8825 29.7846 68.2433C47.5461 78.6912 62.8698 63.3676 71.4893 65.196C80.1088 67.0244 96.0419 74.8604 103.355 71.2036C110.756 67.6339 122.336 59.9721 130.955 65.0219C139.575 70.0718 140.184 59.1014 159.165 63.3676C178.145 67.6339 177.1 61.2781 184.24 65.109C191.466 68.9399 196.342 62.0616 202.959 65.109C209.663 68.1563 230.472 79.7361 237.611 69.8976C244.751 60.0591 250.932 59.2755 256.853 62.3228C262.773 65.3701 264.515 47.6957 290.199 64.3253C315.884 80.955 340.785 68.5916 355.412 67.1986C370.039 65.8055 414.443 77.6465 427.067 70.1588C439.692 62.6711 447.615 77.8206 461.197 75.8181C474.779 73.7285 477.391 69.114 483.573 74.2509C489.755 79.3878 499.767 77.2982 499.767 77.2982C499.767 77.2982 607.033 53.7904 702.109 97.3234C797.185 140.856 837.758 140.856 837.758 140.856V249.602H-32.99V77.4724Z" fill="#A0D400"/>
<path d="M256.853 135.284C256.853 135.284 268.781 158.531 311.531 132.759C354.28 106.988 363.857 77.4723 402.428 108.903C440.998 140.334 488.71 143.468 514.482 139.725" stroke="#006838" stroke-width="1.5" stroke-miterlimit="10"/>
<path d="M21.5135 118.941C21.5135 118.941 45.805 99.6123 68.7034 107.971C91.6017 116.416 115.197 112.411 115.197 112.411" stroke="#006838" stroke-width="1.5" stroke-miterlimit="10"/>
<path d="M-41 82.8704C-41 82.8704 4.01316 63.2805 21.7746 73.6414C39.5361 84.0893 54.8597 68.7657 63.4793 70.5941C72.0988 72.4225 88.0319 80.2584 95.3455 76.6017C102.746 73.032 114.326 65.3701 122.945 70.42C131.565 75.4698 132.174 64.4995 151.155 68.7657C170.135 73.032 169.09 66.6761 176.23 70.507C183.456 74.338 188.332 67.4597 194.949 70.507C201.653 73.5544 222.462 85.1341 229.601 75.2957C236.741 65.4572 242.922 64.6736 248.843 67.7209C254.763 70.7682 256.505 53.0938 282.189 69.7234C307.874 86.3531 332.775 73.9897 347.402 72.5966C362.029 71.2035 406.433 83.0446 419.057 75.5569C431.595 68.0692 439.605 83.2187 453.187 81.2162C466.769 79.1266 469.381 74.5121 475.563 79.649C481.745 84.7859 491.757 82.6963 491.757 82.6963C491.757 82.6963 599.023 59.1885 694.099 102.721C789.175 146.255 829.748 146.255 829.748 146.255" stroke="#006838" stroke-width="1.5" stroke-miterlimit="10"/>
<path d="M107.012 146.516C107.012 146.516 203.307 94.189 328.247 76.6017" stroke="#006838" stroke-width="1.5" stroke-miterlimit="10"/>
<path d="M134.413 16.4899L133.878 16.3116C133.878 15.9551 133.878 15.6877 133.878 15.3311L133.967 15.1528L133.878 15.242C133.878 14.0832 133.878 12.8354 133.789 11.6766C133.7 10.607 133.7 9.53737 133.521 8.46776C133.7 8.28949 133.878 8.20037 133.878 8.20037C133.878 8.20037 133.7 8.20037 133.521 8.20037C133.343 6.68509 133.076 5.1698 132.63 3.74365C132.363 2.76318 131.739 1.7827 131.204 1.15876C131.115 1.06963 131.026 0.891338 130.937 0.802204C130.937 0.534801 130.937 0.267419 130.937 0.267419C130.937 0.267419 130.847 0.445683 130.758 0.623951C130.669 0.534817 130.58 0.445672 130.491 0.445672L130.402 0.356532C130.313 0.267398 130.223 0.267414 130.134 0.17828C130.045 0.17828 130.045 0.0891398 129.956 0.0891398C129.867 0.0891398 129.778 0 129.778 0H129.689H129.6C129.51 0 129.51 0 129.421 0C129.332 0 129.332 0 129.243 0C129.065 0 128.886 0.0891398 128.708 0.0891398C128.708 0.0891398 128.708 0.0891398 128.619 0.0891398C128.53 0.0891398 128.53 0.0891452 128.441 0.17828C128.352 0.17828 128.263 0.267398 128.173 0.356532H128.084C127.193 0.980472 126.391 2.58491 126.123 4.18932C125.945 5.43721 125.767 6.68508 125.767 8.02209C125.678 8.02209 125.589 8.02209 125.589 8.02209C125.589 8.02209 125.678 8.0221 125.678 8.11123C125.589 9.26998 125.589 10.4287 125.499 11.5875C125.321 15.6876 124.965 19.7878 124.43 23.888H124.341L124.43 23.9771C124.252 25.0467 124.073 26.1164 123.895 27.186C123.449 29.6817 122.825 32.1775 122.023 34.5841C121.578 35.9212 121.043 37.2582 120.508 38.506C120.419 38.506 120.419 38.506 120.419 38.506C120.419 38.506 120.419 38.5061 120.508 38.5952C120.062 39.5757 119.617 40.467 119.171 41.3583C118.369 42.8736 117.388 44.2106 116.319 45.5477C116.319 44.0324 116.319 42.5171 116.319 41.0909C116.319 39.7539 116.319 38.4169 116.319 37.0799L117.21 36.7234L116.319 36.4559C116.319 36.0103 116.319 35.5646 116.319 35.1189L116.408 34.9407L116.319 35.0298C116.319 32.3558 116.23 29.6818 116.14 27.0077L116.943 26.7403L116.14 26.562C116.14 26.2055 116.14 25.849 116.14 25.4924L116.23 25.3141L116.14 25.4033C116.051 23.9771 116.051 22.6401 115.962 21.214C115.873 19.9661 115.784 18.7182 115.695 17.4703C115.962 17.2921 116.14 17.1138 116.14 17.1138C116.14 17.1138 115.873 17.1138 115.606 17.1138C115.427 15.3311 115.16 13.5484 114.625 11.8549C114.269 10.6961 113.466 9.44825 112.842 8.64604C112.753 8.55691 112.664 8.37864 112.486 8.28951L112.397 8.20037C112.486 7.84383 112.575 7.57642 112.575 7.57642C112.575 7.57642 112.397 7.75469 112.308 8.02209C112.129 7.84382 111.951 7.66555 111.684 7.57642C111.238 7.30902 110.703 7.13074 110.258 7.04161H110.168C109.545 6.95247 108.832 7.04162 108.208 7.30903C106.781 7.93297 105.355 9.80479 104.731 11.8549C104.286 13.3702 104.018 15.0637 103.84 16.6681C103.751 16.6681 103.662 16.6681 103.662 16.6681C103.662 16.6681 103.751 16.7572 103.84 16.8464C103.662 18.2725 103.573 19.7878 103.484 21.214C103.216 26.4729 103.038 31.7318 103.038 36.9908H102.86L103.038 37.0799C103.038 38.506 103.038 39.8431 103.038 41.2692C103.038 46.5281 103.038 51.7871 103.127 57.046H102.949L103.127 57.1351C103.127 58.0265 103.127 58.8287 103.127 59.72C102.86 59.2743 102.681 58.7395 102.414 58.2939C102.057 57.4916 101.701 56.6003 101.344 55.709L101.879 55.3524H101.255C101.166 55.085 101.077 54.7285 100.899 54.4611C100.899 54.372 100.899 54.3719 100.899 54.3719C100.275 52.5893 99.8291 50.8066 99.3834 48.9347L99.5617 48.7565H99.2943C99.0269 47.5086 98.7595 46.2607 98.4921 44.9237C98.3138 44.0324 98.1355 43.0519 98.0464 42.1606L98.5812 41.8931L97.9573 41.804C97.8681 41.5366 97.8681 41.1801 97.8681 40.9127V40.8235C97.8681 40.8235 97.8681 40.8235 97.8681 40.9127C97.6007 39.0408 97.4225 37.169 97.2442 35.2972L97.779 35.0298L97.2442 34.9407C97.2442 34.6733 97.1551 34.4059 97.1551 34.1385V34.0493L97.0659 34.1385C96.9768 33.158 96.8877 32.1775 96.7985 31.197C96.7094 30.3057 96.6203 29.4143 96.6203 28.523C96.7985 28.4339 96.9768 28.2556 96.9768 28.2556C96.9768 28.2556 96.7985 28.2556 96.6203 28.2556C96.5311 27.0077 96.3529 25.7598 96.0855 24.5119C95.9072 23.7097 95.4615 22.8184 95.0159 22.1944C94.9267 22.1053 94.8376 21.927 94.7485 21.8379C94.8376 21.5705 94.8376 21.3922 94.8376 21.3922C94.8376 21.3922 94.7485 21.4814 94.5702 21.6597C94.4811 21.5705 94.3919 21.4814 94.3919 21.4814L94.3028 21.3922C94.2137 21.3031 94.1245 21.214 94.0354 21.214C93.9463 21.214 93.9463 21.1248 93.8571 21.1248C93.768 21.1248 93.768 21.0357 93.6789 21.0357H93.5897H93.5006H93.4115C93.4115 21.0357 93.4115 21.0357 93.3223 21.0357C93.0549 20.9466 92.7876 20.9466 92.6093 21.0357C92.6093 21.0357 92.6093 21.0357 92.5201 21.0357C92.431 21.0357 92.431 21.0357 92.3419 21.0357C92.2528 21.0357 92.1636 21.1248 92.0745 21.1248H91.9853C91.0049 21.5705 89.9353 22.9075 89.4896 24.4228C89.1331 25.5816 88.9548 26.7403 88.7766 27.9882C88.6874 27.9882 88.5983 27.9882 88.5983 27.9882C88.5983 27.9882 88.6874 27.9882 88.6874 28.0773C88.5983 29.1469 88.5092 30.3057 88.5092 31.3753C88.42 35.2972 88.5983 39.3082 89.1331 43.2302H89.044H89.1331V43.3193C89.044 43.2302 88.9548 43.2301 88.9548 43.141C88.5092 42.7845 88.1526 42.3388 87.7961 41.8931L87.8852 41.804C88.0635 41.6257 88.2418 41.4475 88.2418 41.4475C88.2418 41.4475 87.9744 41.5366 87.7961 41.6257C87.7961 41.6257 87.707 41.6258 87.707 41.7149C87.6178 41.5366 87.4396 41.4475 87.3504 41.2692C86.6374 40.3779 86.0134 39.3974 85.3895 38.4169L85.5678 38.2386L85.3004 38.3278C84.9438 37.6147 84.4982 36.9016 84.2308 36.1885C83.9634 35.6537 83.7851 35.1189 83.5177 34.5841L84.0525 34.2276L83.4286 34.3167C83.3394 34.1385 83.2503 33.9602 83.2503 33.7819V33.6928C82.8046 32.6232 82.4481 31.4644 82.1807 30.3057L82.6264 30.1274H82.0916C82.0024 29.9492 82.0024 29.7709 82.0024 29.6818V29.5926C81.8242 28.9687 81.6459 28.3447 81.5568 27.7208C81.3785 27.186 81.2894 26.6512 81.1111 26.0272C81.2894 25.9381 81.3785 25.849 81.3785 25.849C81.3785 25.849 81.2002 25.849 81.022 25.849C80.8437 25.0467 80.5763 24.2445 80.2198 23.5315C79.9524 22.9967 79.4176 22.4619 78.9719 22.1053C78.8828 22.0162 78.7937 21.9271 78.7045 21.9271C78.7937 21.7488 78.7937 21.6597 78.7937 21.6597C78.7937 21.6597 78.7045 21.7488 78.6154 21.8379C78.5263 21.7488 78.4371 21.7488 78.4371 21.7488C78.4371 21.7488 78.348 21.7488 78.348 21.6597C78.2589 21.6597 78.1697 21.5705 78.0806 21.5705C77.9915 21.5705 77.9023 21.4814 77.9023 21.4814C77.8132 21.4814 77.8132 21.4814 77.7241 21.3922H77.6349C77.5458 21.3922 77.5458 21.3922 77.4567 21.3922H77.3675C77.3675 21.3922 77.3675 21.3922 77.2784 21.3922C77.1001 21.3922 76.9219 21.3922 76.8327 21.3922C76.7436 21.3922 76.6545 21.3922 76.5653 21.3922C76.5653 21.3922 76.5653 21.3922 76.4762 21.3922C76.3871 21.3922 76.3871 21.3922 76.2979 21.3922C76.2088 21.3922 76.1197 21.3922 76.0305 21.4814H75.9414C74.9609 21.7488 73.9805 22.8184 73.6239 23.888C73.3565 24.6902 73.2674 25.5816 73.1783 26.4729C73.0891 26.4729 73 26.4729 73 26.4729C73 26.4729 73.0891 26.4729 73.1783 26.562C73.1783 27.3643 73.1783 28.0773 73.2674 28.8795C73.4457 31.6427 74.0696 34.4059 75.0501 37.169L74.9609 37.2582H75.0501C75.3175 37.9712 75.5849 38.6843 75.9414 39.3974C77.1001 42.0714 78.7937 44.7455 80.9328 47.063C80.9328 47.1521 80.8437 47.1521 80.8437 47.1521H80.9328C81.4676 47.776 82.0916 48.3999 82.8046 49.0239C83.8742 50.0044 85.1221 50.8957 86.37 51.6979C86.4591 51.6979 86.5482 51.7871 86.6374 51.7871C87.2613 51.9653 87.8852 52.1436 88.5092 52.2327C88.5092 52.2327 88.5092 52.2327 88.5983 52.2327C88.7766 52.2327 88.9548 52.2327 89.1331 52.3219C89.2222 52.3219 89.3114 52.3219 89.4005 52.3219C89.5788 52.3219 89.757 52.3219 90.0244 52.411C90.1136 52.411 90.2027 52.411 90.2918 52.411C90.381 52.411 90.381 52.411 90.4701 52.411C90.5592 52.411 90.5592 52.411 90.6484 52.411C90.7375 52.411 90.8266 52.411 90.9157 52.411C91.0049 52.411 91.0049 52.411 91.094 52.411L91.1832 52.5001C91.7179 54.4611 92.3419 56.5112 93.1441 58.4721L93.055 58.5613H93.1441C93.5897 59.6309 94.0354 60.6114 94.4811 61.681C94.6593 62.0375 94.8376 62.4832 95.0159 62.8397C95.8181 64.1767 96.6203 65.4246 97.6007 66.5834C98.1355 67.2073 98.7595 67.9204 99.3834 68.5443C99.3834 68.5443 99.3834 68.5443 99.4725 68.6334C99.6508 68.8117 99.7399 68.9008 99.9182 69.0791L100.007 69.1683C100.186 69.2574 100.275 69.4357 100.453 69.5248L100.542 69.6139C100.542 69.6139 100.542 69.6139 100.631 69.7031C100.72 69.7922 100.81 69.7922 100.899 69.8813C100.899 69.8813 100.899 69.8813 100.988 69.8813C101.077 69.8813 101.077 69.9705 101.166 69.9705C101.255 70.0596 101.344 70.0596 101.433 70.1487L101.523 70.2379H101.612C101.701 70.327 101.879 70.4161 101.968 70.4161C102.057 70.4161 102.057 70.5053 102.147 70.5053C102.236 70.5053 102.236 70.5944 102.325 70.5944C102.503 70.6835 102.592 70.7727 102.77 70.7727C102.86 70.7727 102.949 70.8618 102.949 70.8618H103.038C103.127 71.2183 103.305 71.5749 103.484 71.8423C103.484 73.3576 103.573 74.8729 103.573 76.4773C103.573 76.6555 103.573 76.8338 103.573 77.0121C103.305 76.8338 103.038 76.6555 102.77 76.3881C102.147 76.6555 101.523 76.9229 100.899 77.1903C100.72 77.5469 100.631 77.9034 100.453 78.1708C100.275 78.6165 100.096 79.1513 99.9182 79.597C99.9182 79.597 99.9182 79.6861 99.8291 79.6861C99.7399 79.7752 99.7399 79.9535 99.6508 80.0427C99.8291 80.3101 100.007 80.6666 100.186 80.934C100.542 81.0231 100.899 81.0231 101.255 81.0231C101.79 81.0231 102.414 81.0231 102.949 81.1123C103.305 81.1123 103.662 81.1123 104.018 81.2014C104.197 81.2014 104.286 81.2014 104.464 81.2014C104.553 81.1123 104.642 81.1122 104.731 81.0231C104.821 80.934 104.91 80.8449 105.088 80.7557C105.266 80.7557 105.534 80.7557 105.712 80.7557C106.247 80.7557 106.871 80.7557 107.405 80.8449C107.762 80.8449 108.118 80.8449 108.475 80.934C108.653 80.934 108.742 80.934 108.921 80.934C109.01 80.8449 109.099 80.8449 109.188 80.7557C109.455 80.4883 109.812 80.3101 110.168 80.0427C110.168 79.9535 110.168 79.7752 110.079 79.6861C110.168 79.6861 110.258 79.6861 110.347 79.6861C110.436 79.6861 110.525 79.6861 110.614 79.6861C110.703 79.8644 110.792 80.0426 110.882 80.2209C111.416 80.4883 113.645 81.2905 113.734 81.2905C114.001 81.2014 115.16 80.934 116.23 80.5774C116.319 80.8448 116.497 81.0231 116.675 81.2905C116.943 81.2905 117.299 81.3797 117.567 81.3797C118.101 81.3797 118.547 81.3796 119.082 81.4688C119.349 81.4688 119.706 81.4688 119.973 81.5579C120.062 81.5579 120.241 81.5579 120.33 81.5579C120.419 81.4688 120.419 81.4688 120.508 81.3797C120.686 81.2905 120.864 81.1122 120.954 81.0231C120.954 81.0231 120.954 81.1123 121.043 81.1123C121.31 81.1123 121.667 81.2014 121.934 81.2014C122.469 81.2014 122.915 81.2014 123.449 81.2905C123.717 81.2905 124.073 81.2905 124.341 81.3797C124.43 81.3797 124.608 81.3797 124.697 81.3797C124.786 81.2905 124.786 81.2905 124.875 81.2014C125.143 81.0231 125.41 80.8448 125.678 80.5774C125.678 80.3992 125.589 80.1318 125.589 79.8644C125.499 79.5078 125.499 79.2404 125.41 78.8839C125.143 78.6165 124.875 78.4382 124.519 78.1708C124.341 78.0817 124.252 77.9926 124.073 77.8143C123.717 77.5469 123.36 77.3686 123.093 77.1012C123.004 77.1012 122.915 77.1903 122.736 77.1903C122.469 76.6555 121.934 75.7642 121.845 75.4968C121.132 75.2294 120.419 74.8729 119.706 74.6055C119.617 74.6055 119.527 74.6055 119.527 74.6055C118.636 74.8729 117.745 75.1403 116.853 75.4968C116.675 75.4077 116.497 75.3185 116.319 75.2294C116.319 73.8924 116.319 72.6445 116.408 71.3075V69.2574C116.408 68.5443 116.408 67.8313 116.408 67.1182L116.675 67.029L116.408 66.9399C116.408 65.0681 116.408 63.1962 116.497 61.4136C116.497 60.0765 116.497 58.6504 116.497 57.3134L117.477 56.9568L116.586 56.6894C116.586 56.5112 116.586 56.3329 116.586 56.0655C116.675 55.9764 116.675 55.7981 116.764 55.709C116.943 55.709 117.21 55.6198 117.388 55.6198C117.567 55.6198 117.745 55.5307 117.834 55.5307C117.923 55.5307 118.101 55.4416 118.19 55.3524C118.458 55.2633 118.725 55.085 118.993 54.9959C118.993 54.9959 118.993 54.9959 119.082 54.9959C119.171 54.9068 119.349 54.9068 119.438 54.8176C119.795 54.6394 120.151 54.4611 120.508 54.2828C120.864 53.9263 121.221 53.6589 121.488 53.3024C122.38 52.411 123.271 51.4305 124.073 50.3609L124.341 50.45C124.341 50.45 124.252 50.3609 124.252 50.2718C125.321 48.9347 126.212 47.5086 127.104 45.9933C127.728 44.9237 128.263 43.765 128.797 42.6953C128.886 42.6953 128.886 42.6953 128.976 42.6953C129.243 42.6953 129.51 42.6953 129.51 42.6953L129.065 42.1606C129.243 41.804 129.421 41.4475 129.51 41.0018C129.6 40.9127 129.6 40.9127 129.6 40.9127C129.6 40.9127 129.6 40.9127 129.51 40.9127C129.956 39.843 130.402 38.7734 130.758 37.6147C131.115 36.456 131.471 35.2081 131.828 34.0493L132.095 33.9602L131.828 33.7819C132.274 32.1775 132.63 30.5731 132.897 29.0578C133.076 27.8991 133.254 26.7403 133.432 25.5816L134.056 25.4033L133.432 25.0468C133.521 24.6902 133.521 24.3337 133.521 23.888C133.61 23.7989 133.611 23.7097 133.611 23.7097C133.611 23.7097 133.61 23.7097 133.521 23.7989C133.789 21.4814 133.878 19.1639 133.967 16.8464L134.413 16.4899Z" fill="#E3F2B3"/>
<path d="M301.383 40.7046C301.651 40.7046 301.918 40.7937 301.918 40.7937C301.918 40.7937 301.651 40.7046 301.383 40.7046C301.116 40.6155 300.938 40.5263 300.849 40.5263C300.849 40.5263 300.938 40.5263 301.027 40.4372C301.116 40.4372 301.205 40.3481 301.205 40.3481C301.205 40.3481 301.027 40.3481 300.849 40.3481C300.849 39.9915 300.938 39.635 300.849 39.3676C300.849 39.2784 300.849 39.2785 300.849 39.1893C300.938 39.1893 300.938 39.1893 301.027 39.1893C301.294 39.1893 301.651 39.1893 301.651 39.1893C301.651 39.1893 301.473 39.1893 301.294 39.1002C301.116 39.1002 300.938 39.011 300.938 39.011C300.938 39.011 301.294 38.9219 301.651 38.8328C302.007 38.7437 302.364 38.6545 302.364 38.6545C302.364 38.6545 302.007 38.6545 301.651 38.7437C301.294 38.7437 300.938 38.8328 300.938 38.8328C300.938 38.8328 301.027 38.7436 301.205 38.6545C301.294 38.5654 301.383 38.4762 301.383 38.4762C301.383 38.4762 301.116 38.5654 300.849 38.6545C300.759 38.6545 300.759 38.6545 300.759 38.7437C300.67 38.3871 300.492 37.9414 300.314 37.674C300.492 37.5849 300.67 37.4958 300.67 37.4958C300.67 37.4958 300.581 37.4958 300.492 37.4958C300.403 37.4958 300.314 37.5849 300.314 37.5849C300.314 37.5849 300.492 37.4066 300.759 37.3175C300.938 37.1392 301.205 37.0501 301.205 37.0501C301.205 37.0501 300.938 37.1392 300.759 37.3175C300.492 37.4066 300.314 37.5849 300.314 37.5849C300.314 37.5849 300.403 37.4958 300.403 37.4066C300.492 37.3175 300.492 37.2284 300.492 37.2284C300.492 37.2284 300.403 37.4066 300.225 37.4958C300.046 37.2284 299.779 36.961 299.422 36.7827C299.512 36.6936 299.601 36.6044 299.69 36.4262C299.868 36.1588 300.046 35.9805 300.046 35.9805C300.046 35.9805 299.957 36.0696 299.779 36.1588C299.69 36.2479 299.512 36.4262 299.512 36.4262C299.512 36.4262 299.69 36.0696 299.779 35.7131C299.957 35.3566 300.046 35 300.046 35C300.046 35 299.868 35.3566 299.69 35.7131C299.512 36.0696 299.333 36.4262 299.333 36.4262C299.333 36.4262 299.333 36.337 299.333 36.1588C299.333 35.9805 299.333 35.8913 299.333 35.8913C299.333 35.8913 299.333 36.1588 299.244 36.4262C299.244 36.6044 299.155 36.6936 299.155 36.7827C299.066 36.7827 298.977 36.6935 298.888 36.6935C298.709 36.6044 298.531 36.6044 298.353 36.6044H298.264C298.175 36.6044 298.175 36.6044 298.085 36.6044C298.085 36.5153 298.085 36.4261 298.085 36.2479C298.085 35.9805 298.175 35.7131 298.175 35.7131C298.175 35.7131 298.085 35.8022 298.085 35.9805C298.085 36.0696 297.996 36.2479 297.996 36.2479C297.996 36.2479 297.996 35.8914 297.907 35.624C297.907 35.2674 297.818 35 297.818 35C297.818 35 297.818 35.3565 297.818 35.624C297.818 35.9805 297.818 36.2479 297.818 36.2479C297.818 36.2479 297.729 36.1588 297.729 36.0696C297.64 35.9805 297.64 35.8913 297.64 35.8913C297.64 35.8913 297.729 36.0696 297.818 36.337C297.818 36.4261 297.907 36.5153 297.907 36.6044C297.818 36.6044 297.818 36.6044 297.729 36.6044C297.372 36.6936 297.105 36.7827 296.748 36.8718C296.748 36.7827 296.659 36.6044 296.659 36.5153C296.57 36.2479 296.481 35.8913 296.481 35.8913C296.481 35.8913 296.481 36.0696 296.481 36.2479C296.481 36.4261 296.481 36.6044 296.481 36.6044C296.481 36.6044 296.303 36.2479 296.125 35.9805C295.946 35.6239 295.768 35.3565 295.768 35.3565C295.768 35.3565 295.946 35.7131 296.035 36.0696C296.214 36.4262 296.392 36.7827 296.392 36.7827C296.392 36.7827 296.303 36.6936 296.125 36.6044C296.035 36.5153 295.857 36.4262 295.857 36.4262C295.857 36.4262 296.035 36.6044 296.214 36.7827C296.303 36.8718 296.392 36.961 296.392 37.0501C296.214 37.1392 296.035 37.3175 295.857 37.4066C295.768 37.4958 295.59 37.674 295.501 37.7632C295.411 37.674 295.322 37.5849 295.233 37.4958C295.055 37.3175 294.877 37.0501 294.877 37.0501C294.877 37.0501 294.966 37.1392 295.055 37.3175C295.144 37.4066 295.233 37.5849 295.233 37.5849C295.233 37.5849 294.966 37.4066 294.698 37.2284C294.431 37.0501 294.164 36.8718 294.164 36.8718C294.164 36.8718 294.431 37.0501 294.609 37.3175C294.877 37.4958 295.055 37.7632 295.055 37.7632C295.055 37.7632 294.966 37.7632 294.788 37.674C294.698 37.674 294.52 37.5849 294.52 37.5849C294.52 37.5849 294.698 37.674 294.966 37.7632C295.055 37.8523 295.144 37.8523 295.233 37.9414C294.966 38.298 294.698 38.6545 294.52 39.1002C294.431 39.011 294.253 38.9219 294.164 38.8328C293.896 38.6545 293.718 38.4762 293.718 38.4762C293.718 38.4762 293.807 38.5654 293.896 38.7437C293.985 38.8328 294.164 39.011 294.164 39.011C294.164 39.011 293.807 38.8328 293.451 38.7437C293.094 38.5654 292.738 38.4762 292.738 38.4762C292.738 38.4762 293.094 38.6545 293.361 38.8328C293.718 39.0111 293.985 39.1893 293.985 39.1893C293.985 39.1893 293.807 39.1893 293.718 39.1893C293.54 39.1893 293.451 39.1893 293.451 39.1893C293.451 39.1893 293.718 39.2785 293.985 39.2785C294.164 39.2785 294.253 39.3676 294.342 39.3676C294.164 39.8132 293.985 40.1698 293.985 40.6155C293.807 40.5263 293.629 40.4372 293.629 40.4372C293.629 40.4372 293.718 40.5263 293.807 40.5263C293.896 40.6155 293.985 40.6155 293.985 40.6155C293.896 40.6155 293.718 40.6155 293.451 40.5263C293.183 40.5263 292.916 40.4372 292.916 40.4372C292.916 40.4372 293.183 40.5263 293.451 40.5263C293.718 40.6155 293.896 40.6155 293.985 40.6155C293.985 40.6155 293.896 40.6155 293.807 40.7046C293.718 40.7046 293.629 40.7937 293.629 40.7937C293.629 40.7937 293.807 40.7937 293.985 40.7937C293.985 40.972 293.985 41.1503 293.985 41.3285V41.4177C293.985 41.5959 293.985 41.6851 294.074 41.8634H293.985H293.896C293.896 41.8634 293.896 41.8634 293.807 41.8634C293.629 41.7742 293.451 41.7742 293.272 41.7742C293.272 41.6851 293.361 41.596 293.361 41.5068C293.361 41.4177 293.451 41.3285 293.451 41.2394C293.451 41.1503 293.54 41.1503 293.54 41.1503C293.54 41.1503 293.54 41.1503 293.451 41.2394L293.361 41.3285C293.272 41.4177 293.183 41.5068 293.183 41.5068C293.183 41.5068 293.183 41.2394 293.183 40.972C293.183 40.7046 293.183 40.4372 293.183 40.4372C293.183 40.4372 293.094 40.7046 293.094 40.8829C293.005 41.1503 293.005 41.3285 293.005 41.3285C293.005 41.3285 292.916 41.2394 292.916 41.1503C292.827 41.0611 292.827 40.972 292.827 40.972C292.827 40.972 292.916 41.1503 292.916 41.3285C292.916 41.4177 292.916 41.5068 293.005 41.5068C292.559 41.5068 292.114 41.5068 291.668 41.5959C291.668 41.5068 291.668 41.3285 291.668 41.1503C291.668 40.972 291.668 40.8829 291.668 40.7046C291.668 40.6155 291.668 40.5263 291.668 40.5263C291.668 40.5263 291.668 40.5263 291.668 40.6155C291.668 40.7046 291.579 40.7937 291.579 40.8829C291.49 41.0611 291.49 41.2394 291.49 41.2394C291.49 41.2394 291.311 40.8829 291.222 40.6155C291.044 40.2589 290.955 39.9915 290.955 39.9915C290.955 39.9915 291.044 40.3481 291.133 40.7046C291.222 41.0611 291.311 41.4177 291.311 41.4177C291.311 41.4177 291.222 41.3285 291.044 41.2394C290.866 41.1503 290.777 41.0611 290.777 41.0611C290.777 41.0611 290.955 41.2394 291.133 41.5068C291.222 41.596 291.311 41.7742 291.401 41.7742C291.044 41.8633 290.687 42.0416 290.331 42.309C290.331 42.2199 290.242 42.1307 290.242 42.0416C290.153 41.7742 290.064 41.5959 290.064 41.5959C290.064 41.5959 290.064 41.7742 290.064 41.8634C290.064 42.0416 290.064 42.1307 290.064 42.1307C290.064 42.1307 289.885 41.8633 289.707 41.6851C289.529 41.4177 289.261 41.2394 289.261 41.2394C289.261 41.2394 289.44 41.5068 289.529 41.7742C289.707 42.0416 289.885 42.309 289.885 42.309C289.885 42.309 289.796 42.309 289.618 42.2199C289.529 42.2199 289.35 42.1307 289.35 42.1307C289.35 42.1307 289.529 42.2199 289.707 42.3982C289.796 42.3982 289.796 42.4873 289.885 42.4873C289.261 42.9329 288.816 43.3786 288.37 44.0026C288.281 43.9134 288.281 43.8243 288.192 43.7352C288.013 43.4678 287.835 43.2895 287.835 43.2895C287.835 43.2895 287.924 43.4678 287.924 43.646C287.924 43.7352 288.013 43.8243 288.013 43.8243C288.013 43.9134 288.103 43.9134 288.103 43.9134C288.103 43.9134 287.835 43.7352 287.479 43.5569C287.211 43.3786 286.855 43.2004 286.855 43.2004C286.855 43.2004 287.122 43.4678 287.39 43.646C287.657 43.9134 287.924 44.0917 287.924 44.0917C287.924 44.0917 287.746 44.0917 287.657 44.0917C287.479 44.0917 287.39 44.1808 287.39 44.1808C287.39 44.1808 287.657 44.1808 287.924 44.27C288.013 44.27 288.103 44.27 288.192 44.3591C287.835 44.983 287.479 45.607 287.3 46.3201L287.211 46.2309C287.033 46.0527 286.766 45.9635 286.766 45.9635C286.766 45.9635 286.855 46.0527 286.944 46.2309C287.033 46.3201 287.122 46.4092 287.122 46.4092C287.122 46.4092 286.855 46.3201 286.498 46.3201C286.231 46.2309 285.874 46.2309 285.874 46.2309C285.874 46.2309 286.142 46.3201 286.409 46.4092C286.676 46.4983 286.944 46.5875 286.944 46.5875C286.944 46.5875 286.855 46.6766 286.676 46.6766C286.587 46.6766 286.587 46.7657 286.498 46.7657H286.409C286.409 46.7657 286.676 46.7657 286.855 46.6766H286.944C286.855 47.2114 286.766 47.6571 286.676 48.1919C286.676 48.3702 286.676 48.5484 286.676 48.7267C286.587 48.7267 286.498 48.7267 286.409 48.6376C286.142 48.5484 285.874 48.4593 285.874 48.4593C285.874 48.4593 286.052 48.5484 286.142 48.6376C286.32 48.7267 286.409 48.8158 286.409 48.8158C286.409 48.8158 286.052 48.905 285.696 48.905C285.339 48.9941 284.983 48.9941 284.983 48.9941C284.983 48.9941 285.339 48.9941 285.696 48.9941C286.052 48.9941 286.409 48.9941 286.409 48.9941C286.409 48.9941 286.409 48.9941 286.32 49.0832C286.32 49.0832 286.231 49.1724 286.142 49.2615L286.053 49.3506C285.607 49.3506 285.072 49.3506 284.626 49.4398C284.626 49.3506 284.626 49.2615 284.716 49.0832C284.716 48.9941 284.805 48.8158 284.805 48.7267C284.805 48.6375 284.805 48.6376 284.805 48.6376C284.983 48.6376 285.161 48.7267 285.161 48.7267L284.716 48.4593L285.785 48.281H284.716L285.072 48.0136C285.072 48.0136 284.894 48.1028 284.716 48.1919C284.626 48.1919 284.537 48.281 284.448 48.281C284.359 47.6571 284.27 47.0331 284.181 46.4092C284.27 46.4092 284.448 46.4092 284.537 46.4092C284.805 46.4092 285.072 46.4983 285.072 46.4983C285.072 46.4983 284.894 46.4092 284.805 46.4092C284.626 46.3201 284.537 46.3201 284.537 46.3201C284.537 46.3201 284.894 46.2309 285.161 46.1418C285.518 46.0527 285.785 45.9635 285.785 45.9635C285.785 45.9635 285.429 45.9635 285.072 46.0526C284.716 46.0526 284.359 46.1418 284.359 46.1418C284.359 46.1418 284.448 46.0527 284.537 45.8744C284.626 45.7853 284.716 45.607 284.716 45.607C284.716 45.607 284.537 45.7853 284.27 45.8744C284.181 45.9635 284.092 45.9635 284.002 46.0526C283.913 45.607 283.735 45.0722 283.557 44.6265C283.468 44.4483 283.379 44.27 283.289 44.0026C283.379 44.0026 283.468 44.0026 283.468 44.0026C283.646 44.0026 283.824 44.0026 283.824 44.0026C283.824 44.0026 283.735 44.0026 283.557 44.0026C283.468 44.0026 283.289 44.0026 283.289 44.0026L284.181 43.5569L283.289 43.8243C283.289 43.8243 283.379 43.7352 283.379 43.646C283.379 43.5569 283.468 43.4678 283.468 43.4678C283.468 43.4678 283.379 43.5569 283.2 43.7352C283.111 43.8243 283.111 43.8243 283.022 43.8243C282.844 43.3786 282.576 42.9329 282.309 42.4873C282.398 42.4873 282.487 42.3982 282.576 42.3982C282.844 42.309 283.111 42.2199 283.111 42.2199C283.111 42.2199 282.933 42.2199 282.755 42.2199C282.576 42.2199 282.398 42.2199 282.398 42.2199C282.398 42.2199 282.665 41.9525 282.933 41.7742C283.2 41.5068 283.379 41.2394 283.379 41.2394C283.379 41.2394 283.111 41.4177 282.844 41.5959C282.576 41.7742 282.309 42.0416 282.309 42.0416C282.309 42.0416 282.309 41.8633 282.398 41.7742C282.398 41.5959 282.398 41.5068 282.398 41.5068C282.398 41.5068 282.309 41.7742 282.131 41.9525C282.131 42.0416 282.042 42.0416 282.042 42.1307C281.952 41.9525 281.774 41.8633 281.685 41.6851L281.596 41.5959C281.418 41.4177 281.15 41.2394 280.972 41.1503C281.061 41.0611 281.15 41.0611 281.239 40.972C281.418 40.7937 281.685 40.7046 281.685 40.7046C281.685 40.7046 281.507 40.7046 281.418 40.7937C281.239 40.8829 281.15 40.8829 281.15 40.8829C281.15 40.8829 281.328 40.6155 281.507 40.3481C281.685 40.0807 281.863 39.8132 281.863 39.8132C281.863 39.8132 281.685 39.9915 281.418 40.2589C281.239 40.4372 281.061 40.7046 281.061 40.7046C281.061 40.7046 281.061 40.6155 281.061 40.4372C281.061 40.3481 281.061 40.1698 281.061 40.1698C281.061 40.1698 280.972 40.3481 280.972 40.6155C280.972 40.7046 280.883 40.7937 280.883 40.8829C280.437 40.6155 279.902 40.5263 279.457 40.5263C279.457 40.4372 279.457 40.4372 279.457 40.3481C279.546 40.0807 279.635 39.8132 279.635 39.8132C279.635 39.8132 279.546 39.9915 279.457 40.0807C279.368 40.2589 279.278 40.3481 279.278 40.3481C279.278 40.3481 279.189 39.9915 279.189 39.635C279.1 39.2785 279.011 38.9219 279.011 38.9219C279.011 38.9219 279.011 39.2785 279.011 39.635C279.011 39.9915 279.1 40.3481 279.1 40.3481C279.1 40.3481 279.011 40.2589 278.922 40.1698C278.833 40.0807 278.654 39.9915 278.654 39.9915C278.654 39.9915 278.833 40.1698 279.011 40.4372L279.1 40.5263C278.833 40.6155 278.565 40.7046 278.387 40.8829C278.12 41.0611 277.941 41.3285 277.763 41.5959C277.674 41.5068 277.674 41.5068 277.585 41.4177C277.407 41.2394 277.228 41.0611 277.228 41.0611C277.228 41.0611 277.317 41.1503 277.317 41.3285C277.407 41.4177 277.496 41.5959 277.496 41.5959C277.496 41.5959 277.228 41.5068 276.961 41.3285C276.694 41.2394 276.426 41.0611 276.426 41.0611C276.426 41.0611 276.694 41.2394 276.872 41.4177C277.139 41.5959 277.407 41.7742 277.407 41.7742C277.407 41.7742 277.317 41.7742 277.139 41.8634C277.05 41.8634 276.872 41.9525 276.872 41.9525C276.872 41.9525 277.139 41.9525 277.317 42.0416C277.407 42.0416 277.407 42.0416 277.496 42.0416C277.139 42.6655 276.783 43.3786 276.694 44.0917C276.604 44.0917 276.515 44.0026 276.426 44.0026C276.159 43.8243 275.891 43.7352 275.891 43.7352C275.891 43.7352 275.98 43.8243 276.159 44.0026C276.248 44.0917 276.426 44.27 276.426 44.27C276.426 44.27 276.07 44.27 275.713 44.1808C275.357 44.1808 275 44.0917 275 44.0917C275 44.0917 275.357 44.1808 275.713 44.27C276.07 44.3591 276.426 44.4482 276.426 44.4482C276.426 44.4482 276.337 44.5374 276.159 44.6265C276.07 44.7157 275.891 44.8048 275.891 44.8048C275.891 44.8048 276.159 44.7156 276.426 44.7156C276.515 44.7156 276.604 44.7156 276.694 44.7156C276.604 45.4287 276.515 46.1418 276.604 46.8549C276.426 46.7657 276.159 46.7657 276.159 46.7657C276.159 46.7657 276.248 46.8549 276.337 46.8549C276.426 46.944 276.515 46.944 276.515 46.944L275.446 47.1223C275.446 47.1223 275.713 47.1223 275.98 47.1223C276.248 47.1223 276.426 47.1223 276.515 47.1223C276.515 47.1223 276.426 47.2114 276.337 47.3005C276.248 47.3897 276.159 47.4788 276.159 47.4788C276.159 47.4788 276.337 47.3897 276.515 47.3005C276.515 47.7462 276.604 48.1919 276.694 48.7267C276.694 48.9049 276.783 49.1724 276.783 49.4398C276.694 49.4398 276.604 49.4398 276.515 49.4398C276.248 49.4398 275.98 49.3506 275.98 49.3506C275.98 49.3506 276.159 49.4398 276.248 49.4398C276.426 49.5289 276.515 49.5289 276.515 49.5289L275.178 49.8854C275.178 49.8854 275.535 49.8854 275.891 49.7963C276.248 49.7963 276.604 49.7072 276.604 49.7072C276.604 49.7072 276.515 49.7963 276.426 49.9746C276.337 50.0637 276.248 50.242 276.248 50.242C276.248 50.242 276.515 50.0637 276.694 49.9746C276.783 49.9746 276.783 49.8854 276.872 49.8854C277.05 50.5985 277.228 51.3116 277.496 51.9355C277.317 51.9355 277.139 51.9355 277.139 51.9355C277.139 51.9355 277.228 51.9355 277.407 52.0247C277.496 52.0247 277.585 52.0247 277.585 52.0247L276.783 52.3812C276.783 52.3812 277.05 52.292 277.228 52.292C277.407 52.2029 277.585 52.2029 277.674 52.2029C277.674 52.2029 277.585 52.2921 277.585 52.3812C277.496 52.4703 277.496 52.5595 277.496 52.5595C277.496 52.5595 277.585 52.4703 277.763 52.3812C278.031 53.0051 278.387 53.6291 278.833 54.0747C278.744 54.0747 278.654 54.1639 278.565 54.1639C278.298 54.253 278.031 54.3422 278.031 54.3422C278.031 54.3422 278.209 54.3422 278.387 54.3422C278.565 54.3422 278.744 54.3422 278.744 54.3422C278.744 54.3422 278.476 54.6096 278.209 54.7878C277.941 55.0552 277.674 55.2335 277.674 55.2335C277.674 55.2335 277.941 55.0552 278.298 54.877C278.565 54.6987 278.922 54.5204 278.922 54.5204C278.922 54.5204 278.922 54.6987 278.833 54.7878C278.833 54.9661 278.744 55.0552 278.744 55.0552C278.744 55.0552 278.833 54.7878 279.011 54.6095C279.1 54.5204 279.1 54.4313 279.189 54.3422C279.368 54.5204 279.457 54.6096 279.635 54.7878C279.368 55.4118 279.189 56.1248 279.1 56.8379C279.011 56.8379 279.011 56.7488 278.922 56.7488C278.654 56.5705 278.387 56.3922 278.387 56.3922C278.387 56.3922 278.476 56.5705 278.654 56.6597C278.744 56.8379 278.922 56.927 278.922 56.927C278.922 56.927 278.565 56.927 278.209 56.927C277.852 56.927 277.496 56.927 277.496 56.927C277.496 56.927 277.852 57.0162 278.209 57.1053C278.565 57.1945 278.922 57.2836 278.922 57.2836C278.922 57.2836 278.833 57.3727 278.654 57.4619C278.565 57.551 278.387 57.7292 278.387 57.7292C278.387 57.7292 278.654 57.6401 278.922 57.551C279.011 57.551 279.011 57.551 279.1 57.4619C279.011 58.4423 278.922 59.3337 278.922 60.3141C278.744 60.225 278.565 60.1359 278.565 60.1359L278.922 60.4924C278.922 60.4924 278.654 60.4924 278.476 60.5816C278.209 60.5816 278.031 60.6707 278.031 60.6707C278.031 60.6707 278.298 60.6707 278.476 60.7598C278.744 60.7598 278.922 60.8489 278.922 60.8489C278.922 60.8489 278.833 60.9381 278.744 61.0272C278.654 61.1164 278.565 61.2055 278.565 61.2055C278.565 61.2055 278.744 61.1164 278.922 61.0272C279.011 61.9186 279.189 62.8991 279.457 63.7904C279.368 63.7904 279.278 63.7904 279.189 63.7904C278.922 63.7904 278.565 63.7013 278.565 63.7013C278.565 63.7013 278.744 63.7904 278.922 63.8795C279.1 63.9686 279.278 64.0578 279.278 64.0578L277.941 64.5926L279.368 64.4143L279.1 65.0383L279.724 64.5035C279.724 64.6817 279.813 64.7709 279.813 64.9491H280.615H281.863H289.44H292.024C292.114 64.86 292.203 64.6817 292.203 64.5035C292.203 64.5035 292.292 64.5035 292.292 64.5926C292.47 64.6817 292.648 64.86 292.648 64.86C292.648 64.86 292.559 64.7709 292.47 64.5926C292.47 64.5926 292.47 64.5035 292.381 64.5035L292.292 64.4143C292.292 64.4143 292.559 64.5035 292.827 64.5035C293.094 64.5926 293.361 64.5926 293.361 64.5926C293.361 64.5926 293.094 64.5035 292.916 64.4143C292.648 64.3252 292.381 64.2361 292.381 64.2361C292.381 64.2361 292.47 64.1469 292.559 64.0578C292.648 63.9687 292.738 63.8795 292.738 63.8795C292.738 63.8795 292.559 63.9686 292.292 63.9686H292.203C292.381 63.1664 292.47 62.0968 292.559 61.2055C292.648 61.2055 292.738 61.2946 292.738 61.2946C293.005 61.3838 293.272 61.562 293.272 61.562C293.272 61.562 293.094 61.4729 293.005 61.2946C292.827 61.2055 292.738 61.0272 292.738 61.0272L294.164 60.9381L292.738 60.6707C292.738 60.6707 292.827 60.5815 293.005 60.4033C293.094 60.3141 293.272 60.1359 293.272 60.1359C293.272 60.1359 293.005 60.225 292.738 60.4033C292.648 60.4033 292.648 60.4924 292.559 60.4924C292.559 59.8685 292.559 59.3337 292.559 59.1554C292.559 58.7097 292.559 58.1749 292.47 57.7292C292.648 57.8184 292.827 57.8184 292.827 57.8184C292.827 57.8184 292.737 57.7292 292.648 57.6401C292.559 57.551 292.47 57.4619 292.47 57.4619L293.451 57.2836C293.451 57.2836 293.183 57.2836 293.005 57.2836C292.737 57.2836 292.559 57.2836 292.559 57.2836C292.559 57.2836 292.648 57.1945 292.738 57.1053C292.827 57.0162 292.916 56.927 292.916 56.927C292.916 56.927 292.737 57.0162 292.648 57.1053C292.559 56.5705 292.47 56.0357 292.292 55.4117C292.292 55.4117 292.292 55.4118 292.292 55.3226C292.292 55.2335 292.292 55.2335 292.292 55.1444C292.559 55.1444 292.916 55.0552 293.183 55.0552C293.183 55.1444 293.183 55.3226 293.183 55.4117C293.183 55.59 293.183 55.6792 293.183 55.8574C293.183 55.9466 293.183 56.0357 293.183 56.0357C293.183 56.0357 293.183 56.0357 293.183 55.9466C293.183 55.8574 293.272 55.7683 293.272 55.7683C293.361 55.59 293.361 55.4117 293.361 55.4117C293.361 55.4117 293.451 55.7683 293.629 56.1248C293.718 56.4814 293.896 56.8379 293.896 56.8379C293.896 56.8379 293.807 56.4814 293.807 56.1248C293.718 55.7683 293.718 55.4117 293.718 55.4117C293.718 55.4117 293.807 55.5009 293.985 55.59C294.074 55.6792 294.074 55.6792 294.164 55.6792C294.253 55.6792 294.253 55.7683 294.253 55.7683C294.253 55.7683 294.074 55.59 293.896 55.3226C293.807 55.2335 293.807 55.1444 293.718 55.0552C294.342 54.8769 294.877 54.6096 295.233 54.253C295.233 54.3421 295.322 54.3422 295.322 54.4313C295.411 54.6987 295.501 54.877 295.501 54.877C295.501 54.877 295.501 54.6987 295.501 54.6095C295.501 54.4313 295.411 54.3422 295.411 54.3422C295.411 54.3422 295.59 54.5204 295.857 54.7878C296.125 54.9661 296.303 55.2335 296.303 55.2335C296.303 55.2335 296.125 54.9661 295.946 54.7878C295.768 54.5204 295.59 54.3422 295.59 54.3422C295.59 54.3422 295.679 54.3422 295.857 54.3422C295.946 54.3422 295.946 54.3422 296.035 54.3422C296.125 54.3422 296.125 54.3422 296.125 54.3422C296.125 54.3422 296.035 54.3422 295.946 54.3422C295.857 54.3422 295.768 54.253 295.679 54.253C295.59 54.253 295.59 54.1639 295.501 54.1639C295.59 54.0747 295.679 53.9856 295.768 53.8965C296.125 53.4508 296.481 52.916 296.748 52.3812C296.838 52.4703 296.838 52.4703 296.927 52.5595C297.105 52.7377 297.372 53.0051 297.372 53.0051C297.372 53.0051 297.283 52.8269 297.194 52.7377C297.105 52.5595 297.016 52.4703 297.016 52.4703C297.016 52.4703 297.372 52.5595 297.729 52.7377C298.085 52.8269 298.442 53.0051 298.442 53.0051C298.442 53.0051 298.175 52.8269 297.818 52.6486C297.551 52.4703 297.194 52.292 297.194 52.292C297.194 52.292 297.194 52.292 297.283 52.292C297.372 52.292 297.462 52.2921 297.462 52.2029C297.64 52.1138 297.729 52.1138 297.729 52.1138C297.729 52.1138 297.462 52.1138 297.194 52.1138C297.105 52.1138 297.105 52.1138 297.016 52.1138C297.283 51.4899 297.462 50.7768 297.64 50.0637C297.64 50.0637 297.729 50.0637 297.729 50.1528C297.996 50.242 298.175 50.4202 298.175 50.4202C298.175 50.4202 298.085 50.3311 297.996 50.242C297.907 50.1528 297.818 50.0637 297.818 50.0637C297.818 50.0637 298.085 50.0637 298.442 50.1528C298.709 50.1528 299.066 50.242 299.066 50.242C299.066 50.242 298.799 50.1528 298.442 50.0637C298.175 49.9746 297.818 49.8854 297.818 49.8854C297.818 49.8854 297.907 49.7963 297.996 49.7072C298.085 49.618 298.175 49.5289 298.175 49.5289C298.175 49.5289 297.907 49.618 297.729 49.618H297.64C297.729 49.1723 297.729 48.6376 297.729 48.1919C297.729 48.0136 297.729 47.7462 297.729 47.5679C297.818 47.5679 297.907 47.5679 297.996 47.6571C298.175 47.6571 298.264 47.7462 298.353 47.7462C298.442 47.7462 298.531 47.8353 298.531 47.8353C298.531 47.8353 298.531 47.8354 298.442 47.7462C298.353 47.7462 298.353 47.6571 298.264 47.6571C298.085 47.5679 297.996 47.4788 297.996 47.4788C297.996 47.4788 298.353 47.3897 298.709 47.3897C299.066 47.3005 299.422 47.2114 299.422 47.2114C299.422 47.2114 299.066 47.2114 298.709 47.2114C298.353 47.2114 297.996 47.2114 297.996 47.2114C297.996 47.2114 298.085 47.1223 298.175 46.944C298.264 46.8549 298.353 46.6766 298.353 46.6766C298.353 46.6766 298.085 46.8549 297.907 46.944C297.818 46.944 297.818 47.0331 297.729 47.0331C297.729 46.8549 297.64 46.5875 297.551 46.4092C297.551 46.3201 297.551 46.2309 297.462 46.1418C297.372 45.8744 297.283 45.607 297.194 45.3396C297.194 45.2505 297.194 45.2504 297.105 45.2504C297.105 45.1613 297.016 45.0722 297.016 45.0722C297.105 45.0722 297.105 45.0722 297.194 45.0722C297.372 45.0722 297.64 44.9831 297.64 44.9831C297.64 44.9831 297.551 44.9831 297.372 44.9831C297.283 44.9831 297.105 44.9831 297.105 44.9831C297.105 44.9831 297.372 44.8048 297.551 44.7156C297.64 44.6265 297.818 44.5374 297.907 44.5374C297.907 44.8048 297.996 45.0722 297.996 45.0722C297.996 45.0722 297.996 44.8939 297.996 44.7156C297.996 44.6265 297.996 44.5374 297.996 44.4482C298.085 44.5374 298.175 44.8048 298.264 45.0722C298.442 45.4287 298.531 45.7853 298.531 45.7853C298.531 45.7853 298.442 45.4287 298.353 45.0722C298.264 44.7157 298.175 44.3591 298.175 44.3591C298.175 44.3591 298.264 44.4482 298.353 44.5374C298.442 44.6265 298.531 44.7156 298.531 44.7156C298.531 44.7156 298.353 44.5374 298.175 44.27L298.085 44.1808C298.442 44.0026 298.799 43.8243 299.066 43.5569C299.066 43.5569 299.066 43.5569 299.066 43.646C299.244 43.8243 299.333 44.0917 299.333 44.0917C299.333 44.0917 299.333 44.0026 299.244 43.8243C299.155 43.7352 299.155 43.5569 299.155 43.5569C299.155 43.5569 299.333 43.8243 299.601 44.0026C299.868 44.27 300.046 44.4482 300.046 44.4482C300.046 44.4482 299.868 44.1808 299.69 43.9134C299.512 43.646 299.244 43.3786 299.244 43.3786C299.244 43.3786 299.333 43.3786 299.422 43.4678C299.512 43.4678 299.69 43.5569 299.69 43.5569C299.69 43.5569 299.512 43.4678 299.333 43.2895C299.601 43.0221 299.868 42.6656 300.046 42.3982L300.136 42.4873C300.403 42.6655 300.581 42.8438 300.581 42.8438C300.581 42.8438 300.492 42.7547 300.403 42.5764C300.314 42.4873 300.225 42.309 300.225 42.309C300.225 42.309 300.581 42.4873 300.938 42.6656C301.294 42.8438 301.651 43.0221 301.651 43.0221C301.651 43.0221 301.294 42.8438 301.027 42.6656C300.67 42.4873 300.403 42.309 300.403 42.309C300.403 42.309 300.581 42.309 300.67 42.309C300.849 42.309 300.938 42.309 300.938 42.309C300.938 42.309 300.67 42.2199 300.403 42.2199H300.314C300.492 41.8633 300.581 41.5068 300.67 41.0611C300.849 41.1503 301.116 41.2394 301.116 41.2394C301.116 41.2394 301.027 41.1503 300.938 41.1503C300.849 41.0611 300.759 41.0611 300.759 41.0611C300.938 40.6155 301.205 40.7046 301.383 40.7046Z" fill="#E3F2B3"/>
<rect y="233" width="375" height="740" fill="#E3F2B3"/>
</svg>
